<svg width="92" height="27" viewBox="0 0 92 27" fill="none" xmlns="http://www.w3.org/2000/svg">
<path d="M0.448307 11.7274L9.65238 0.537137C9.9481 0.179049 10.3178 -2.2229e-07 10.6874 -2.2229e-07C11.057 -2.2229e-07 11.4267 0.179049 11.7224 0.537137C12.3138 1.25331 12.3138 2.37234 11.7224 3.08852L5.03186 11.235L26.619 11.235C27.4322 11.235 28.0975 12.0407 28.0975 13.0255C28.0975 14.0102 27.4322 14.8159 26.619 14.8159L5.03186 14.8159L11.7224 22.9624C12.3138 23.6786 12.3138 24.7976 11.7224 25.5138C11.131 26.2299 10.2069 26.2299 9.61543 25.5138L0.411329 14.3235C-0.143134 13.5626 -0.143121 12.3988 0.448307 11.7274Z" fill="#FF5722"/>
<rect x="91.6855" y="15.2185" width="88.7142" height="4.47534" rx="2.23767" transform="rotate(-180 91.6855 15.2185)" fill="#FF5722"/>
</svg>
