<svg width="53" height="27" viewBox="0 0 53 27" fill="none" xmlns="http://www.w3.org/2000/svg">
<path d="M52.237 11.7274L43.0329 0.537139C42.7372 0.179051 42.3675 1.33046e-06 41.9979 1.33046e-06C41.6283 1.33046e-06 41.2586 0.179051 40.9629 0.537139C40.3715 1.25331 40.3715 2.37235 40.9629 3.08852L47.6534 11.235H26.0663C25.2531 11.235 24.5878 12.0407 24.5878 13.0255C24.5878 14.0102 25.2531 14.8159 26.0663 14.8159H47.6534L40.9629 22.9624C40.3715 23.6786 40.3715 24.7976 40.9629 25.5138C41.5543 26.2299 42.4784 26.2299 43.0699 25.5138L52.274 14.3235C52.8284 13.5626 52.8284 12.3988 52.237 11.7274Z" fill="#9A9A9A"/>
<rect width="50" height="4.00159" rx="2.00079" transform="matrix(1 0 0 -1 -0.00012207 15.0061)" fill="#9A9A9A"/>
</svg>
